<svg width="491" height="268" viewBox="0 0 491 268" fill="none" xmlns="http://www.w3.org/2000/svg">
<path d="M0 134C0 59.9939 60.0717 9.84703e-05 134.174 0C208.276 0 284.133 85.9893 334 134C287.721 180.936 208.276 268 134.174 268V228C156.938 228 186.136 213.802 219.694 187.237C240.438 170.817 259.859 152.169 277.479 134.457C258.976 116.13 239.455 97.2023 218.226 80.2617C185.139 53.8594 156.864 40 134.174 40C82.1141 40.0001 40 82.1342 40 134C40 185.866 82.1141 228 134.174 228V268L132.439 267.989C59.7136 267.069 0.931673 208.363 0.0107422 135.731L0 134Z" fill="white"/>
<path d="M491 134C491 160.511 483.122 186.425 468.368 208.462C453.614 230.498 432.648 247.668 408.126 257.806C383.604 267.943 356.623 270.594 330.593 265.427C304.563 260.259 280.647 247.504 261.872 228.766L290.128 200.454C303.303 213.603 320.095 222.562 338.381 226.192C356.667 229.822 375.622 227.958 392.845 220.839C410.067 213.719 424.781 201.665 435.13 186.208C445.479 170.751 451 152.582 451 134C451 115.417 445.479 97.249 435.13 81.7918C424.781 66.3343 410.067 54.2806 392.845 47.161C375.622 40.0413 356.667 38.1773 338.381 41.8075C320.095 45.4375 303.303 54.3967 290.128 67.5457L261.872 39.2332C280.647 20.4961 304.563 7.74043 330.593 2.57309C356.623 -2.59415 383.604 0.0571547 408.126 10.1942C432.648 20.3314 453.614 37.5013 468.368 59.5379C483.122 81.5751 491 107.488 491 134Z" fill="#00BE9B"/>
</svg>
