<svg width="513" height="344" viewBox="0 0 513 344" fill="none" xmlns="http://www.w3.org/2000/svg">
<path d="M4 134C4 59.9939 64.0717 9.84703e-05 138.174 0C212.276 0 288.133 85.9893 338 134C291.721 180.936 212.276 268 138.174 268V228C160.938 228 190.136 213.802 223.694 187.237C244.438 170.817 263.859 152.169 281.479 134.457C262.976 116.13 243.455 97.2023 222.226 80.2617C189.139 53.8594 160.864 40 138.174 40C86.1141 40.0001 44 82.1342 44 134C44 185.866 86.1141 228 138.174 228V268L136.439 267.989C63.7136 267.069 4.93167 208.363 4.01074 135.731L4 134Z" fill="#1B3C53"/>
<path d="M495 134C495 160.511 487.122 186.425 472.368 208.462C457.614 230.498 436.648 247.668 412.126 257.806C387.604 267.943 360.623 270.594 334.593 265.427C308.563 260.259 284.647 247.504 265.872 228.766L294.128 200.454C307.303 213.603 324.095 222.562 342.381 226.192C360.667 229.822 379.622 227.958 396.845 220.839C414.067 213.719 428.781 201.665 439.13 186.208C449.479 170.751 455 152.582 455 134C455 115.417 449.479 97.249 439.13 81.7918C428.781 66.3343 414.067 54.2806 396.845 47.161C379.622 40.0413 360.667 38.1773 342.381 41.8075C324.095 45.4375 307.303 54.3967 294.128 67.5457L265.872 39.2332C284.647 20.4961 308.563 7.74043 334.593 2.57309C360.623 -2.59415 387.604 0.0571547 412.126 10.1942C436.648 20.3314 457.614 37.5013 472.368 59.5379C487.122 81.5751 495 107.488 495 134Z" fill="#00BE9B"/>
<path d="M23.392 328.529H41.796V342.977H4.3V282.089H23.392V328.529ZM66.8959 297.311V304.793H85.8159V319.155H66.8959V327.755H88.3959V342.977H47.8039V282.089H88.3959V297.311H66.8959ZM134.635 333.775H114.339L111.329 342.977H91.291L113.565 282.089H135.581L157.769 342.977H137.645L134.635 333.775ZM129.991 319.413L124.487 302.471L118.983 319.413H129.991ZM187.477 282.089C193.841 282.089 199.402 283.379 204.161 285.959C208.977 288.539 212.675 292.122 215.255 296.709C217.835 301.295 219.125 306.513 219.125 312.361C219.125 318.151 217.835 323.369 215.255 328.013C212.675 332.657 208.977 336.326 204.161 339.021C199.402 341.658 193.841 342.977 187.477 342.977H162.107V282.089H187.477ZM185.757 325.949C190.057 325.949 193.468 324.773 195.991 322.423C198.513 320.072 199.775 316.718 199.775 312.361C199.775 308.003 198.513 304.649 195.991 302.299C193.468 299.948 190.057 298.773 185.757 298.773H181.199V325.949H185.757Z" fill="#1B3C53"/>
<path d="M264.454 343.579C257.173 343.579 251.153 341.887 246.394 338.505C241.693 335.065 239.141 330.048 238.74 323.455H259.036C259.323 326.952 260.871 328.701 263.68 328.701C264.712 328.701 265.572 328.471 266.26 328.013C267.005 327.497 267.378 326.723 267.378 325.691C267.378 324.257 266.604 323.111 265.056 322.251C263.508 321.333 261.1 320.301 257.832 319.155C253.933 317.779 250.694 316.431 248.114 315.113C245.591 313.794 243.413 311.873 241.578 309.351C239.743 306.828 238.855 303.589 238.912 299.633C238.912 295.677 239.915 292.323 241.922 289.571C243.986 286.761 246.767 284.64 250.264 283.207C253.819 281.773 257.803 281.057 262.218 281.057C269.671 281.057 275.577 282.777 279.934 286.217C284.349 289.657 286.671 294.501 286.9 300.751H266.346C266.289 299.031 265.859 297.798 265.056 297.053C264.253 296.307 263.279 295.935 262.132 295.935C261.329 295.935 260.67 296.221 260.154 296.795C259.638 297.311 259.38 298.056 259.38 299.031C259.38 300.407 260.125 301.553 261.616 302.471C263.164 303.331 265.601 304.391 268.926 305.653C272.767 307.086 275.921 308.462 278.386 309.781C280.909 311.099 283.087 312.934 284.922 315.285C286.757 317.635 287.674 320.588 287.674 324.143C287.674 327.869 286.757 331.223 284.922 334.205C283.087 337.129 280.421 339.422 276.924 341.085C273.427 342.747 269.27 343.579 264.454 343.579ZM352.862 282.089L331.018 324.487V342.977H311.926V324.487L290.082 282.089H311.926L321.644 303.675L331.362 282.089H352.862ZM415.596 342.977H396.504L376.294 312.361V342.977H357.202V282.089H376.294L396.504 313.221V282.089H415.596V342.977ZM422.502 312.447C422.502 306.427 423.706 301.066 426.114 296.365C428.579 291.663 432.077 288.023 436.606 285.443C441.135 282.805 446.467 281.487 452.602 281.487C457.877 281.487 462.578 282.49 466.706 284.497C470.891 286.446 474.274 289.227 476.854 292.839C479.491 296.451 481.24 300.665 482.1 305.481H461.976C461.059 303.474 459.74 301.926 458.02 300.837C456.357 299.69 454.437 299.117 452.258 299.117C449.047 299.117 446.496 300.321 444.604 302.729C442.769 305.137 441.852 308.376 441.852 312.447C441.852 316.517 442.769 319.757 444.604 322.165C446.496 324.573 449.047 325.777 452.258 325.777C454.437 325.777 456.357 325.232 458.02 324.143C459.74 322.996 461.059 321.419 461.976 319.413H482.1C481.24 324.229 479.491 328.443 476.854 332.055C474.274 335.667 470.891 338.476 466.706 340.483C462.578 342.432 457.877 343.407 452.602 343.407C446.467 343.407 441.135 342.117 436.606 339.537C432.077 336.899 428.579 333.23 426.114 328.529C423.706 323.827 422.502 318.467 422.502 312.447ZM498.434 343.665C495.108 343.665 492.442 342.776 490.436 340.999C488.429 339.221 487.426 336.985 487.426 334.291C487.426 331.539 488.429 329.274 490.436 327.497C492.442 325.662 495.108 324.745 498.434 324.745C501.702 324.745 504.339 325.662 506.346 327.497C508.352 329.274 509.356 331.539 509.356 334.291C509.356 336.985 508.352 339.221 506.346 340.999C504.339 342.776 501.702 343.665 498.434 343.665Z" fill="#00BE9B"/>
</svg>
